<svg version="1.2" xmlns="http://www.w3.org/2000/svg" viewBox="0 0 110 110" width="110" height="110">
	<title>advantages_quality-svg</title>
	<defs>
		<linearGradient id="g1" x1="21.3" y1="21" x2="81.5" y2="90.2" gradientUnits="userSpaceOnUse">
			<stop offset="0" stop-color="#00fbff"/>
			<stop offset="1" stop-color="#00fbff"/>
		</linearGradient>
	</defs>
	<style>
		.s0 { opacity: .1;fill: url(#g1) } 
		.s1 { opacity: .1;fill: none;stroke: #00fbff } 
		.s2 { opacity: .1;fill: #00fbff } 
		.s3 { fill: none;stroke: #00fbff;stroke-linecap: round;stroke-linejoin: round;stroke-width: 1.5 } 
	</style>
	<path id="Layer" class="s0" d="m55.2 89.4c-18.9 0-34.2-15.3-34.2-34.2 0-18.9 15.3-34.2 34.2-34.2 18.9 0 34.2 15.3 34.2 34.2 0 18.9-15.3 34.2-34.2 34.2z"/>
	<path id="Layer" class="s1" d="m55 98.5c-24.1 0-43.5-19.4-43.5-43.5 0-24.1 19.4-43.5 43.5-43.5 24.1 0 43.5 19.4 43.5 43.5 0 24.1-19.4 43.5-43.5 43.5z"/>
	<path id="Layer" class="s1" d="m55 109.5c-30.1 0-54.5-24.4-54.5-54.5 0-30.1 24.4-54.5 54.5-54.5 30.1 0 54.5 24.4 54.5 54.5 0 30.1-24.4 54.5-54.5 54.5z"/>
	<path id="Layer" class="s2" d="m30 55c0-13.8 11.2-25 25-25 13.8 0 25 11.2 25 25 0 13.8-11.2 25-25 25-13.8 0-25-11.2-25-25z"/>
	<path id="Layer" fill-rule="evenodd" class="s3" d="m55 64.6c0 0 7.7-2.3 7.7-8.7 0-6.4 0.2-6.9-0.4-7.5-0.6-0.7-6.3-2.6-7.3-2.6-1 0-6.7 1.9-7.3 2.6-0.7 0.6-0.4 1.1-0.4 7.5 0 6.4 7.7 8.7 7.7 8.7z"/>
	<path id="Layer" fill-rule="evenodd" class="s3" d="m52.4 54.9l1.9 1.9 3.9-3.9"/>
</svg>