<svg width="39" height="26" viewBox="0 0 39 26" fill="none" xmlns="http://www.w3.org/2000/svg">
<path fill-rule="evenodd" clip-rule="evenodd" d="M28.1667 14.4181C3.11885 27.6356 -7.35982 30.1145 5.5387 18.868C-5.19755 28.9975 3.73117 26.1683 27.3026 13L27.0833 13.5276L27.5485 13.6106L27.0833 14.065L27.9665 13.8934L27.5749 14.4772L28.1637 14.4237L28.1667 14.4181Z" fill="#9562EE"/>
<path fill-rule="evenodd" clip-rule="evenodd" d="M27.2976 18.0556C27.8439 17.8005 28.3044 17.3983 28.6249 16.8962C28.9455 16.394 29.1127 15.8129 29.1069 15.221C30.8466 14.8451 32.8331 14.2974 34.6318 13.4448C32.9663 16.2571 30.4681 17.4724 27.2976 18.0556ZM23.8333 12.1911C24.3331 11.8555 24.9207 11.6666 25.5267 11.6466C26.1327 11.6267 26.7319 11.7766 27.2537 12.0786C28.4543 10.7894 29.9321 9.38321 31.587 8.29529C28.2651 8.28789 25.9364 9.79766 23.8333 12.1911ZM28.9328 14.4365C34.974 13.1458 38.3298 10.8471 39 7.5404C35.7356 6.45494 32.0215 8.14678 27.8578 12.6159L28.9328 14.4365Z" fill="#9562EE"/>
<path fill-rule="evenodd" clip-rule="evenodd" d="M7.95504 19.5C9.723 18.9856 11.3861 18.1255 12.8597 16.9634C12.3342 15.7743 12.0699 14.473 12.0868 13.1585C12.0633 11.688 12.3977 10.2361 13.0573 8.94463C13.6863 7.72887 14.6252 6.72794 15.7653 6.05768C16.9756 5.35292 18.337 4.99616 19.7157 5.02244C22.0937 5.02244 24.0912 6.01541 25.7083 8.00134L29.25 4.51354C28.1148 3.06114 26.6735 1.91594 25.0439 1.17159C23.3754 0.390528 21.5076 0 19.4408 0C16.9885 0 14.7794 0.562805 12.8136 1.68841C10.8978 2.76861 9.29725 4.38979 8.18689 6.37476C7.06329 8.37232 6.50099 10.6304 6.5 13.149C6.5 15.489 6.98501 17.6028 7.95504 19.4905V19.5Z" fill="#9562EE"/>
<path fill-rule="evenodd" clip-rule="evenodd" d="M16.2322 20.5371C14.2609 21.5145 12.4612 22.3671 10.8333 23.0949C11.4429 23.5923 12.098 24.0306 12.7898 24.4037C14.7562 25.4669 16.9563 25.999 19.3903 26C21.4599 26 23.3364 25.6336 25.0199 24.9008C26.6653 24.1966 28.1166 23.1022 29.25 21.7112L25.7019 18.4167C24.0879 20.3135 22.0867 21.2619 19.6985 21.2619C18.5024 21.2787 17.3174 21.0302 16.2278 20.5341L16.2322 20.5371Z" fill="#9562EE"/>
</svg>
