<svg width="38" height="38" viewBox="0 0 38 38" fill="none" xmlns="http://www.w3.org/2000/svg">
<path d="M7.85714 8.79245L12.1429 8L17.7143 8.79245L17.2857 13.5472H19L18.1429 15.5283L25.8571 16.3208L26.2857 15.9245H28V16.717L27.5714 17.1132L37 18.6981V19.8868L27.5714 18.3019L27.1429 18.6981L22 17.9057L21.5714 19.0943V20.6792H20.7143V19.4906L19.4286 20.283L20.2857 22.2642H18.1429L17.7143 20.6792H15.5714L14.2857 21.8679V22.2642H16V25.434H16.8571V27.0189L16 27.8113L12.5714 27.4151V24.6415L10.8571 23.4528L8.71429 24.6415L9.57143 26.6226L6.57143 29L3.14286 28.2075L2.28571 29H1V25.434L2.71429 24.2453L4 24.6415L4.42857 23.8491L2.71429 22.2642V17.5094L6.57143 13.9434L7.85714 13.1509V8.79245Z" fill="#515B76" stroke="#515B76"/>
</svg>
