<svg width="22" height="14" viewBox="0 0 22 14" fill="none" xmlns="http://www.w3.org/2000/svg">
<path d="M21.8834 12.0598C21.8567 12.0024 21.8319 11.9548 21.8088 11.9166C21.4271 11.2292 20.6977 10.3854 19.621 9.385L19.5983 9.36209L19.5869 9.35086L19.5754 9.33935H19.5638C19.0751 8.87352 18.7657 8.5603 18.6361 8.39994C18.399 8.09447 18.3459 7.78527 18.4755 7.47197C18.567 7.23526 18.9109 6.73537 19.5064 5.97161C19.8196 5.56684 20.0677 5.24243 20.2509 4.99802C21.572 3.24158 22.1448 2.11919 21.9691 1.63041L21.9009 1.51619C21.855 1.44742 21.7367 1.38452 21.546 1.32714C21.3548 1.26989 21.1105 1.26043 20.8127 1.29858L17.5138 1.32137C17.4604 1.30243 17.3841 1.3042 17.2847 1.32714C17.1854 1.35009 17.1357 1.36161 17.1357 1.36161L17.0783 1.39029L17.0327 1.42476C16.9945 1.44754 16.9525 1.48762 16.9067 1.54492C16.8611 1.60201 16.8229 1.66901 16.7924 1.74535C16.4333 2.66935 16.0249 3.52844 15.5666 4.32257C15.2841 4.7961 15.0246 5.20649 14.7876 5.55396C14.5509 5.90132 14.3524 6.15725 14.1921 6.3213C14.0317 6.48551 13.8868 6.61706 13.7568 6.71643C13.6269 6.81585 13.5277 6.85786 13.4591 6.84249C13.3903 6.82713 13.3255 6.81188 13.2642 6.79663C13.1573 6.72787 13.0714 6.63435 13.0066 6.516C12.9415 6.39764 12.8977 6.24868 12.8748 6.06922C12.852 5.88965 12.8385 5.73519 12.8347 5.60532C12.8311 5.47561 12.8328 5.29214 12.8405 5.05544C12.8484 4.81861 12.852 4.65837 12.852 4.57436C12.852 4.28413 12.8577 3.96915 12.869 3.62934C12.8806 3.28952 12.8899 3.02028 12.8977 2.82193C12.9055 2.62337 12.9091 2.41331 12.9091 2.19185C12.9091 1.97039 12.8957 1.79671 12.869 1.67065C12.8427 1.54475 12.8023 1.42255 12.7491 1.30408C12.6955 1.18572 12.6171 1.09417 12.5142 1.02918C12.4112 0.964261 12.283 0.912747 12.1305 0.874473C11.7258 0.78288 11.2103 0.733332 10.584 0.725629C9.16376 0.710383 8.25115 0.802097 7.84643 1.00065C7.68607 1.08454 7.54095 1.19916 7.41121 1.34416C7.27372 1.51222 7.25454 1.60393 7.3538 1.61902C7.81204 1.68766 8.13645 1.85187 8.32738 2.11149L8.39619 2.24906C8.44971 2.34831 8.50315 2.52404 8.55663 2.77599C8.61003 3.02794 8.64449 3.30665 8.65965 3.61197C8.69777 4.16951 8.69777 4.64678 8.65965 5.0438C8.62142 5.44099 8.58531 5.75019 8.55085 5.97165C8.51639 6.19311 8.46487 6.37257 8.39619 6.50998C8.32738 6.64743 8.2816 6.73144 8.25866 6.76193C8.23575 6.79242 8.21665 6.81164 8.20149 6.81918C8.10223 6.85722 7.999 6.87659 7.89216 6.87659C7.78516 6.87659 7.65542 6.82307 7.50272 6.71611C7.35006 6.60915 7.19163 6.46224 7.02742 6.27512C6.86321 6.08796 6.67802 5.82642 6.47176 5.49045C6.26567 5.15449 6.05183 4.75743 5.83037 4.29926L5.64714 3.96699C5.5326 3.75323 5.37613 3.44198 5.17758 3.03352C4.9789 2.6249 4.8033 2.22964 4.65064 1.84782C4.58962 1.68746 4.49795 1.56538 4.37578 1.48137L4.31845 1.4469C4.28034 1.41641 4.21916 1.38403 4.13523 1.34953C4.05117 1.31507 3.96347 1.29035 3.87176 1.27515L0.733229 1.29794C0.412512 1.29794 0.194902 1.37059 0.0803198 1.51571L0.0344629 1.58435C0.0115545 1.62259 0 1.68365 0 1.7677C0 1.85171 0.0229084 1.95482 0.0687653 2.0769C0.526933 3.15372 1.02518 4.19222 1.56351 5.19257C2.10184 6.19291 2.56963 6.99872 2.96662 7.60926C3.36368 8.22024 3.76841 8.79689 4.1808 9.3389C4.59319 9.88112 4.86617 10.2286 4.99973 10.3813C5.13345 10.5342 5.23848 10.6485 5.31483 10.7249L5.60124 10.9997C5.78451 11.1831 6.05363 11.4026 6.40873 11.6583C6.76391 11.9143 7.15713 12.1662 7.58858 12.4146C8.0201 12.6626 8.52212 12.865 9.09491 13.0215C9.66762 13.1781 10.225 13.241 10.7673 13.2107H12.0846C12.3517 13.1876 12.5541 13.1036 12.6917 12.9586L12.7373 12.9012C12.7679 12.8556 12.7966 12.7848 12.8231 12.6895C12.8499 12.5941 12.8632 12.4889 12.8632 12.3745C12.8554 12.0462 12.8804 11.7503 12.9375 11.4869C12.9946 11.2236 13.0597 11.025 13.1324 10.8913C13.2052 10.7577 13.2873 10.645 13.3786 10.5536C13.4702 10.462 13.5354 10.4065 13.5737 10.3874C13.6117 10.3682 13.6421 10.3551 13.665 10.3473C13.8483 10.2863 14.0639 10.3454 14.3124 10.525C14.5606 10.7045 14.7934 10.926 15.0112 11.1894C15.2288 11.453 15.4903 11.7487 15.7957 12.077C16.1013 12.4054 16.3685 12.6495 16.5975 12.8101L16.8265 12.9476C16.9795 13.0393 17.178 13.1233 17.4224 13.1997C17.6664 13.276 17.8801 13.2951 18.0637 13.2569L20.9959 13.2112C21.2859 13.2112 21.5116 13.1632 21.6717 13.0679C21.8321 12.9724 21.9274 12.8673 21.9581 12.7529C21.9888 12.6384 21.9904 12.5085 21.9639 12.3633C21.9368 12.2184 21.91 12.1171 21.8834 12.0598Z" fill="#9FA4B0"/>
</svg>
