<svg width="38" height="28" viewBox="0 0 38 28" fill="none" xmlns="http://www.w3.org/2000/svg">
<path d="M17.7832 16.4239L17.6415 16.1453C17.5378 16.1453 17.484 16.1429 17.4365 16.1453C17.3803 16.1476 17.3153 16.059 17.3153 16.059C17.3153 16.059 17.2243 16.1405 17.0541 16.127L17.0058 16.9908C17.0058 16.9908 17.2061 17.0232 17.2124 17.0691C17.218 17.1063 17.172 17.1649 17.1214 17.1649C17.0707 17.1649 17.0367 17.1055 17.0367 17.1055L16.9931 17.0992L16.754 20.5754L16.7271 17.005L16.5466 16.9385L16.4714 17.2948L16.4643 20.4773L16.2244 21.261L16.2189 22.2846L16.3044 22.6314L16.3075 23.2125L16.1967 23.6225L16.1856 25.1418L15.9964 27.4582L15.8824 25.897L15.7653 25.5748L15.7708 22.937L15.7146 22.439C15.7146 22.439 15.6441 24.0651 15.6204 24.6723L15.4407 22.0313L15.4613 20.2991L15.3077 19.6705L15.3053 18.2796L15.0662 17.5758V16.3036C15.0662 16.3036 14.8097 16.2347 14.7115 16.1516C14.6197 16.0748 14.5002 15.9608 14.5002 15.9608L14.1803 15.9687L13.1535 15.4153L13.0134 15.3987L12.8393 15.1351L13.034 15.3346C13.034 15.3346 13.7473 15.489 14.007 15.5301C14.1099 15.5468 14.2563 15.5642 14.1898 15.3615C14.1851 15.3465 14.1978 15.3219 14.2073 15.3045C14.2785 15.1723 14.2999 15.0638 14.0996 15.0535C14.0822 15.0528 14.0268 15.0187 14.0228 15.0053C14.0062 14.9419 13.9927 14.8366 13.9238 14.8422C13.7924 14.8525 13.6452 14.7788 13.5613 14.7535C13.4853 14.7313 13.4124 14.7543 13.4124 14.7543C13.4124 14.7543 13.3285 14.6633 13.2881 14.6522C13.2208 14.6348 13.1852 14.6482 13.1338 14.6435C12.9232 14.6245 12.8923 14.7353 12.8298 14.9C12.6215 14.6173 12.5305 14.7187 12.3809 14.6435C12.3025 14.6047 12.1568 14.5532 12.1568 14.5532C12.1568 14.5532 12.0452 14.6031 11.989 14.6498C11.9621 14.672 11.8813 14.6743 11.8663 14.6545C11.7895 14.5508 11.6787 14.4923 11.5306 14.5105C11.4095 14.5255 11.2915 14.4582 11.2915 14.4582L11.282 14.7741L11.1142 15.2839L11.0691 16.3851L10.9773 16.8364L10.9503 14.4677L10.8862 14.4645L10.8918 17.6605L10.9195 17.7128L10.925 18.0983L10.7809 18.4379L10.7651 18.7934L10.8221 18.9082L10.6036 23.2853L10.5656 20.2991L10.5078 20.1756L10.4437 22.0368L10.2608 22.6171L10.2774 24.0888L10.0977 24.4665V25.0198L10.1223 25.1109L9.96709 26.976L9.84834 24.9351L9.71771 24.2693L9.70584 22.9765L9.61401 22.663L9.61559 21.2357L9.47546 20.2588L9.47467 18.1165L9.38521 17.7848L9.39313 16.4975L9.31871 16.1856L9.07884 20.4424L9.03609 15.1485L8.94109 15.0567C8.94109 15.0567 8.9395 14.4258 8.9395 14.14C8.58959 14.2009 8.29509 14.0727 7.99505 13.9436C7.8565 13.8835 7.50342 13.9175 7.39971 13.8645C7.29363 13.8098 7.17567 13.7204 7.17567 13.7204C7.17567 13.7204 6.95401 13.7433 6.82655 13.7022C6.5748 13.6681 6.52255 13.5771 6.41171 13.4678C6.0523 13.114 5.64855 12.8741 5.14346 12.8369C4.97959 12.825 4.85451 12.7427 4.73575 12.6247C4.53388 12.4252 4.2845 12.3429 3.99951 12.3793C3.93221 12.388 3.85621 12.3809 3.79288 12.3571C3.56567 12.2724 3.34163 12.1774 3.1168 12.0848C3.03367 12.05 2.87138 11.9629 2.87138 11.9629C2.87138 11.9629 2.80013 12.0017 2.76451 12.0246C2.74709 12.0357 2.70038 12.0215 2.68138 12.0033C2.52542 11.8536 2.37896 11.7008 2.36392 11.4578C2.35838 11.3707 2.37896 11.3224 2.34334 11.2868C2.22617 11.168 2.07971 11.0271 2.0813 10.8609C2.08288 10.674 2.07101 10.4175 2.07734 10.2307C2.08684 9.918 2.23013 9.6995 2.48901 9.51742C2.62042 9.4248 2.75026 9.3678 2.8983 9.35434C3.07484 9.3385 3.27038 9.3765 3.43505 9.38521C3.87838 9.40817 3.77071 9.4525 3.8863 9.46834C3.97021 9.48021 4.0953 9.48021 4.18001 9.47388C4.79196 9.44934 4.8458 9.50871 5.17434 9.74067C5.4728 9.95205 5.82034 9.81905 5.99055 9.94017C6.04596 9.97975 6.19005 10.1563 6.3658 10.2173C6.6318 10.3091 6.71017 10.2885 6.87326 10.332C7.36171 10.4627 7.4765 10.4658 7.74963 10.4516L7.77575 10.4943L7.88738 10.5102L7.97288 10.4405L8.81442 10.4571L8.76375 9.68367L8.59434 9.14771L8.8263 8.19851V7.08225L8.85875 7.05534L8.86034 6.93105L8.8263 6.88909C8.8263 6.821 8.82709 6.77746 8.82709 6.77746L8.86192 6.77113L8.8635 6.5835L8.81838 6.53917L8.82392 6.1378L9.04717 5.64617L9.07171 5.18859L9.36859 4.9503C9.36859 4.9503 9.52455 4.92021 9.58076 4.89884C9.80559 4.81255 9.92592 4.74288 9.92592 4.74288C10.37 4.70488 10.5988 4.59642 10.5988 4.59642L10.6843 4.30588C10.7192 4.42146 10.8039 4.7413 10.8039 4.7413L10.9678 4.67875C10.9678 4.67875 11.0635 4.85767 11.1625 4.87034L11.233 4.57188L11.3398 4.60671L11.4285 3.64405L11.567 5.36671L11.6256 5.5013C11.6256 5.5013 11.666 5.20996 11.6779 5.15217C11.6882 5.31288 11.761 5.79975 11.761 5.79975C11.761 5.79975 11.974 6.20192 12.0365 6.40459C12.0365 6.40459 11.9676 6.62705 11.9114 6.9643C11.8362 7.06009 11.7064 7.15192 11.7183 7.429C11.7293 7.68471 11.7665 7.89688 11.7665 7.89688L11.6597 8.02434L11.6723 9.94571L11.3683 11.1023L12.1545 11.1696L12.4363 11.3018L12.8028 11.2915L13.5098 11.4673L13.6396 11.438L13.9207 11.6058L14.0948 11.59C14.0948 11.59 14.1194 11.6233 14.1471 11.6328L14.1107 11.7903L14.1598 11.8568L14.2975 11.8726L14.5698 12.1022L14.7369 12.0151L14.6308 9.76125L14.7266 9.58075L14.725 8.91496L14.425 8.04334L14.417 6.44971L14.3355 6.35471L14.3118 7.15825L14.1962 5.80055L14.06 5.58205L14.0592 5.27725L14.0236 5.25825C14.0244 5.1973 14.0576 5.01917 14.0576 5.01917L14.003 4.94871L14.0933 4.05017C14.0933 4.05017 14.2445 3.99317 14.3767 3.66225C14.4891 3.37963 14.5999 3.28305 14.7701 3.13738C14.8786 3.04396 14.972 2.93075 15.0844 2.84288C15.2111 2.74392 15.2428 2.6323 15.4858 2.5753C15.6877 2.52859 15.8365 2.3085 15.8365 2.3085L15.9085 2.39242L16.0764 1.89209L16.1935 1.85171L16.3622 0.541504L16.4548 2.17234L16.5332 2.185L16.6092 1.6158L16.7121 2.65209L16.7754 2.67505L16.7968 2.36075L16.8799 2.2523L16.9401 1.59125L17.0105 2.50246L17.0501 2.62992L17.0905 2.48584L17.1372 2.95767L17.2948 3.05346L17.2963 3.24109L17.4539 3.4873C17.4539 3.4873 17.4768 3.78259 17.4737 3.86017C17.4705 3.93696 17.4658 4.09055 17.4658 4.09055L17.5212 4.34071L17.4301 4.49984L17.4262 4.59721L17.4626 4.62809L17.4697 5.52346L17.3755 5.97946L17.4135 6.22725L17.2504 9.21421L17.2195 7.01021L17.1079 7.51688L17.1 9.70188L17.2457 10.1895L17.256 12.6255C17.256 12.6255 17.3502 12.578 17.4745 12.5828C17.6534 12.5891 17.8046 12.7348 18.0666 12.7799C18.1521 12.8408 18.2756 12.9849 18.3706 13.03C18.3975 13.0427 18.5765 13.0791 18.5765 13.0791L18.7601 13.2509C18.9351 13.2351 19.0546 13.2699 19.1773 13.3309C19.4093 13.3918 19.6064 13.4963 19.7363 13.7022C19.8241 13.8423 19.9445 13.9246 20.0292 13.9737C20.1139 14.0236 20.4955 14.0149 20.4955 14.0149L20.4907 11.6993L20.2928 10.9416L20.2754 9.24113L20.4907 8.80967L20.4717 7.3728L20.4092 7.16063L20.4131 6.64921L20.3593 6.7173C20.3593 6.7173 20.3205 8.31488 20.3023 8.873C20.2944 8.873 20.1479 5.94542 20.1479 5.94542L20.0157 5.67388C20.0157 5.67388 20.1384 5.33505 20.1384 5.27805C20.1384 5.1403 20.0862 5.07617 20.0862 5.07617L20.0688 4.56871C20.0688 4.56871 20.1701 4.351 20.2136 4.0763C20.2437 3.88709 20.2453 3.66146 20.2453 3.66146L20.6182 3.20625L20.6277 2.86663L20.782 2.68613L20.8596 1.20492L20.9396 2.32038L21.1011 2.91809L21.1787 2.83417V2.44625L21.265 2.59984L21.2958 1.95621L21.333 2.52384L21.4621 2.76371L21.637 2.7178L22.0155 2.94184L22.1556 2.93709L22.2316 2.66396L22.3131 3.0875L22.4382 3.1738L22.481 3.3155C22.481 3.3155 22.6559 3.42159 22.6892 3.45721C22.7755 3.58625 22.9385 4.04146 22.9385 4.04146L22.9805 4.56871C22.7105 5.1498 22.6805 5.434 22.682 5.7863C22.6836 6.20113 22.6092 7.11392 22.6092 7.11392L22.7731 7.87075L22.6559 12.6374L22.5601 13.0831C22.5601 13.0831 22.5578 10.8078 22.5578 9.78501L22.5237 9.72246L22.3939 10.3281L22.3907 13.4694L22.3234 14.0473L22.3147 14.6332C22.3147 14.6332 22.397 14.6981 22.5158 14.7234C22.7858 14.9364 23.1111 14.9839 23.4737 14.9253C23.4983 14.9213 23.5244 14.9237 23.5497 14.9221C23.6867 14.9134 23.7856 14.9673 23.8347 15.1034C23.879 15.2285 23.9653 15.2633 24.0936 15.2697C24.2408 15.2776 24.305 15.2618 24.4506 15.2942C24.5488 15.3164 24.5638 15.4264 24.8251 15.4264C24.9945 15.4343 25.1323 15.5048 25.27 15.595C25.3745 15.6639 25.6278 15.7835 25.6278 15.7835L25.5827 14.0909L25.6136 12.5297L25.5313 12.164L25.4845 12.1085L25.3895 13.209L25.1703 11.7206L25.1592 9.95759L25.289 9.49763V8.79621L25.1837 8.26975L25.1988 8.06234L25.1346 8.02513L25.1307 7.89055L25.1006 7.84067L25.2882 6.86375L25.5471 6.63338L25.7585 6.0903L25.8099 6.29534L25.8622 6.32938L25.9413 5.00809L26.1036 6.01746L26.2224 6.12117L26.3158 6.07684L26.4433 4.30667L26.5454 5.94938L26.6158 5.28359L26.6705 6.0808L26.733 5.99846L26.7853 6.09821L26.8533 6.10217L26.9008 6.18609L27.0148 6.18055C27.1122 6.2803 27.2539 6.31275 27.3149 6.3555C27.4123 6.42438 27.5445 6.44417 27.5445 6.44417C27.5445 6.44417 27.7368 6.74184 27.8239 6.94688C27.8928 7.10917 27.9933 7.45117 27.9933 7.45117L27.968 8.02038L28.0321 8.22621L27.8683 8.6735L28.059 8.95534L27.8255 14.254L27.7337 10.7785L27.6814 10.9844L27.6878 11.9407L27.4788 12.426C27.4788 12.426 27.4685 14.0513 27.4772 14.7899C27.4803 15.0448 27.4677 15.1897 27.4677 15.1897L27.2341 15.7732L27.2302 16.165L27.4107 16.2648C27.7004 16.2149 28.0131 16.2292 28.2673 16.3978C28.3615 16.4603 28.481 16.4857 28.5926 16.515C28.7478 16.5561 28.7122 16.5173 28.8713 16.5387C28.9259 16.5458 29.1191 16.6646 29.1737 16.6345C29.2307 16.6036 29.283 16.4485 29.3661 16.4334C29.4492 16.4184 29.5371 16.5609 29.5379 16.6226C29.5387 16.6804 29.5434 16.7857 29.5434 16.7857C29.5434 16.7857 29.7485 16.9021 29.845 16.8997C30.2662 16.8997 30.4879 17.0573 30.8441 17.1253C31.1022 17.1744 31.217 17.1895 31.4703 17.2599C31.5598 17.2845 31.7229 17.3011 31.8092 17.3779C31.8448 17.4095 31.8321 17.4919 32.0166 17.5449C32.1171 17.5742 32.4124 17.571 32.6016 17.6843C32.9626 17.9004 33.208 17.9661 33.4645 17.9471C33.5556 17.9408 33.6672 17.9534 33.7408 18.0033C33.9775 18.1624 34.2364 18.2313 34.5111 18.2614C34.5729 18.2685 34.6615 18.316 34.7217 18.3334C34.7217 18.3429 34.6156 18.396 34.4993 18.3944C34.4145 18.3936 34.3219 18.3398 34.2689 18.3413C33.9775 18.3493 34.0211 18.3223 33.8295 18.2812C33.7266 18.259 33.7139 18.293 33.6482 18.3746C33.5833 18.4553 33.4788 18.5187 33.3933 18.5028C33.2967 18.4846 33.2152 18.3785 33.0481 18.3548C32.6578 18.2978 32.741 18.202 32.4219 18.0793C32.338 18.0476 32.0981 18.0239 32.0071 18.0183C31.6469 18.0183 31.7925 17.8608 31.5851 17.845C31.3777 17.8291 31.3722 17.6945 31.2859 17.666C31.2146 17.6423 31.1972 17.6874 30.9882 17.6779C30.9431 17.6755 30.875 17.685 30.8418 17.6573C30.5362 17.4064 30.1578 17.4658 29.811 17.3937C29.4619 17.3755 29.3811 17.2789 29.1967 17.271C29.0676 17.2655 28.8301 17.3834 28.8301 17.3834C28.8301 17.3834 28.819 17.4935 28.8341 17.5378C28.8903 17.7143 29.0478 17.7919 29.2838 17.7563C29.4294 17.7341 29.5672 17.7025 29.6519 17.8727C29.659 17.8869 29.6859 17.8956 29.7049 17.898C29.7738 17.9107 29.8553 17.8964 29.9195 17.9083C29.9978 17.9233 30.0572 17.9653 30.1285 17.9795C31.6271 18.2835 31.6263 18.445 31.954 18.445C32.1433 18.445 32.2066 18.4648 32.4924 18.4648C32.5335 18.4648 32.6064 18.6406 33.1186 18.7609C33.2413 18.8013 33.288 18.8322 33.7321 18.8322C33.8295 18.8322 34.181 19.0578 34.3568 19.0657C34.3979 19.0673 34.4945 19.0602 34.4961 18.9968C34.4977 18.9446 34.4446 18.8939 34.4043 18.8749C34.3085 18.829 34.2032 18.8068 34.1042 18.768C34.0535 18.7483 34.0037 18.7205 33.9601 18.6865C33.9419 18.6723 33.9269 18.6501 33.9356 18.605C33.9451 18.5598 34.0282 18.5907 34.0282 18.5907C34.0282 18.5907 34.1968 18.7388 34.6338 18.8053C34.7534 18.8567 35.0503 19.0713 35.1745 19.1108C35.5047 19.1085 35.6092 19.1591 35.6891 19.228C35.7311 19.2636 35.7723 19.2763 35.8578 19.2921C35.967 19.3127 36.1982 19.2628 36.1847 19.3175C36.1736 19.4125 36.119 19.4671 36.0066 19.4402C35.9282 19.422 35.8467 19.4038 35.7746 19.3689C35.6005 19.2834 35.431 19.1995 35.2252 19.2256C35.1579 19.2343 35.0795 19.1884 35.0123 19.1568C34.8603 19.0847 34.7146 19.0713 34.5634 19.1631C34.4011 19.262 34.2317 19.232 34.0654 19.1686C33.9427 19.1219 33.7013 19.0055 33.7013 19.0055C33.7013 19.0055 33.4345 18.9945 33.3315 19.0293C33.3339 18.9517 33.3236 18.8448 33.2065 18.8733C33.0893 18.9018 33.1447 18.9683 33.1914 19.0079C33.1028 19.0158 32.9998 19.0697 32.9104 19.061C32.8209 19.053 32.7449 18.9834 32.6563 18.8702C32.6198 18.8235 32.5628 18.7625 32.5098 18.7546C32.4773 18.7498 32.4575 18.7902 32.414 18.7918C32.3752 18.7934 32.2826 18.6818 32.2113 18.6723C32.072 18.6533 31.9667 18.586 31.8891 18.5575C31.7427 18.5052 31.6398 18.5179 31.6398 18.5179C31.6398 18.5179 31.5163 18.4395 31.4545 18.4173C31.2772 18.3532 31.251 18.3817 31.2415 18.5662C31.2558 18.7316 31.179 18.7894 31.1347 18.8828C31.1275 18.8971 31.061 18.9098 30.9969 18.8433C30.9985 18.8274 31.0009 18.8116 31.0025 18.7958C31.0508 18.7625 31.118 18.7403 31.1426 18.6936C31.1687 18.6445 31.1758 18.6018 31.16 18.5456C31.1521 18.5163 31.1363 18.4466 31.0943 18.4324C31.0698 18.4237 30.9874 18.4823 30.9621 18.4751C30.9257 18.4656 30.9067 18.3595 30.8497 18.4063C30.7927 18.4538 30.8307 18.5044 30.8394 18.5495C30.8687 18.6936 30.799 18.8053 30.6644 18.8116C30.5845 18.8148 30.5354 18.7847 30.5568 18.6913C30.5655 18.6509 30.5742 18.6105 30.5821 18.5693C30.6074 18.4355 30.5552 18.3635 30.5552 18.3635C30.5552 18.3635 30.1166 18.2107 29.9939 18.1885C29.9218 18.1759 29.8348 18.2115 29.8205 18.2543C29.7738 18.3983 29.8023 18.43 29.8743 18.5258C29.8902 18.5464 29.9108 18.5765 29.9361 18.5923C30.0034 18.635 30.0675 18.6707 30.0073 18.7712C29.9503 18.8662 29.8862 18.9185 29.7706 18.886C29.6479 18.8409 29.6044 18.8005 29.408 18.7973C29.3463 18.7791 29.2798 18.7554 29.2339 18.7134C29.0724 18.5654 28.8689 18.5234 28.6568 18.5234C28.6045 18.5234 28.5515 18.4823 28.5206 18.4411C28.4208 18.3049 28.3433 18.2725 28.192 18.2685C28.0757 18.2645 27.8999 18.2717 27.7843 18.259C27.6862 18.2653 27.5484 18.2376 27.5484 18.2376L27.531 18.122L27.2975 18.1102L27.3845 18.8931L27.0948 23.5758L27.014 20.1843L26.9689 20.1764L26.8945 20.4741V22.5166L26.6895 23.1301L26.452 26.1321L26.2612 23.1404L26.2453 21.5159L26.0989 20.9404L26.1044 20.0632L26.1923 19.7157V18.1727L26.0482 17.7587C26.0482 17.7587 26.0205 17.7571 25.9097 17.7864C25.8638 17.7983 25.7577 17.7658 25.7577 17.7658L25.711 19.4449L25.6643 17.7777C25.5479 17.8434 25.494 17.8798 25.422 17.936C25.1813 18.126 24.9383 18.2186 24.7602 18.1941C24.6501 18.179 24.5836 18.2416 24.5203 18.2479C24.487 18.2511 24.4435 18.2337 24.434 18.2107C24.3873 18.0943 24.2891 18.0801 24.1894 18.0563C24.0073 18.0136 23.8268 17.9613 23.6447 17.9162C23.3605 17.8465 23.0763 17.822 22.796 17.9408C22.7699 17.9518 22.7327 17.9653 22.7074 17.9495C22.5807 17.8663 22.4588 17.9154 22.3416 17.9471C22.1239 18.0057 22.1105 17.8442 22.1105 17.8442L22.0558 17.7943L21.8777 18.4878L21.884 21.6537L21.6307 22.2561V23.0842L21.3734 25.2265L21.2056 22.3883L21.2278 20.7615L21.0631 20.3118C21.0631 20.3118 20.9562 22.0796 20.9111 22.7929L20.7733 20.3419L20.6103 19.756L20.714 19.2264L20.7203 17.4943L20.6388 17.4594C20.6388 17.4594 20.5295 17.1523 20.4551 17.1523C20.3807 17.1523 19.7719 17.115 19.7719 17.115C19.7719 17.115 19.3285 17.2528 19.1227 17.3375C18.9953 17.3898 18.9295 17.3613 18.7965 17.3613C18.7791 17.3613 18.734 17.4048 18.6825 17.442C18.5939 17.5053 18.5147 17.514 18.4395 17.4293C18.3334 17.3082 18.236 17.3122 18.236 17.3122C18.236 17.3122 18.0587 17.3842 18.0413 17.3803C17.9748 17.3652 17.9091 17.3478 17.8465 17.3201C17.8386 17.3169 17.8481 17.2251 17.8481 17.2251L18.0025 17.142L18.1054 17.1792L18.1672 17.2283L18.2622 17.2108L18.3469 17.2663C18.3469 17.2663 18.4023 17.2552 18.4189 17.2583C18.43 17.2607 18.4482 17.0858 18.4482 17.0858L18.4696 17.275C18.5709 17.2979 18.5923 17.1602 18.5923 17.0984C18.5923 17.0177 18.5432 16.9282 18.5432 16.9282L18.5036 16.9148L18.4419 16.9828L18.3865 16.8752L18.2234 16.7683L17.9661 16.7572L17.7832 16.4239ZM17.8758 16.8031C17.8758 16.8031 18.0706 16.9148 18.0286 16.9472C18.012 16.9599 17.9289 16.8696 17.8434 16.8712C17.7785 16.872 17.693 16.9615 17.693 16.9615L17.5671 16.9591L17.4048 17.1127L17.3114 17.1095L17.2488 17.172L17.2655 17.0818C17.2655 17.0818 17.4388 16.9219 17.4578 16.8926C17.4982 16.83 17.5243 16.625 17.5243 16.625C17.5243 16.625 17.5869 16.6448 17.6708 16.6448L17.746 16.4944L17.86 16.6622L17.8758 16.8031ZM23.3676 16.4223L23.347 16.6424C23.347 16.6424 23.4626 16.6622 23.5537 16.6725C23.5988 16.6773 23.6408 16.7548 23.636 16.9409C23.7247 16.9892 23.8228 16.9781 23.8838 16.9623C23.9622 16.9425 24.0366 16.9005 24.115 16.8894C24.2329 16.8728 24.3738 16.8308 24.468 16.8768C24.8552 17.0668 25.2463 17.005 25.6397 16.9599C25.6453 16.9013 25.6445 16.819 25.6429 16.7841C25.6389 16.6812 25.5993 16.7137 25.4545 16.7453C25.3389 16.7707 25.2716 16.7279 25.2098 16.6408C25.1505 16.5577 25.0855 16.4778 25.0214 16.3986C25.0151 16.3907 24.9945 16.3946 24.9739 16.3923C24.9644 16.4374 24.9549 16.4793 24.9494 16.5078C24.8053 16.5292 24.8385 16.4033 24.7744 16.3796C24.6984 16.3519 24.6042 16.3796 24.533 16.3455C24.3287 16.2474 24.13 16.1397 23.9012 16.2695C23.8893 16.2759 23.8695 16.2751 23.8561 16.2695C23.7627 16.2315 23.5655 16.1912 23.5655 16.1912C23.5655 16.1912 23.4769 16.2656 23.2608 16.2648C22.9615 16.2941 22.709 16.2149 22.5585 15.9165C22.5269 15.8539 22.4715 15.8009 22.4184 15.7542C22.3875 15.7265 22.3385 15.7201 22.2981 15.7043C22.2902 15.717 22.2815 15.7296 22.2735 15.7431C22.2973 15.7708 22.3163 15.8072 22.3456 15.8246C22.4818 15.9054 22.5585 15.9925 22.6512 16.1579C22.7327 16.268 22.861 16.3044 22.9362 16.382C23.1776 16.3796 23.2449 16.4081 23.3676 16.4223ZM27.25 17.2726C27.25 17.2726 27.2143 17.4863 27.2816 17.5988C27.2816 17.5988 27.4297 17.5972 27.6236 17.6019C27.8192 17.6067 28.0108 17.6645 28.2047 17.6914C28.2546 17.6985 28.3274 17.7056 28.3535 17.6771C28.3876 17.6399 28.4034 17.5655 28.3955 17.5117C28.3741 17.3708 28.2815 17.3098 28.0955 17.3248C27.8144 17.3478 27.5342 17.4206 27.25 17.2726ZM14.3323 15.3734C14.3308 15.5206 14.4281 15.6402 14.52 15.6663C14.6688 15.709 14.6696 15.546 14.6823 15.4335C14.683 15.424 14.7147 15.3362 14.7139 15.3283C14.7036 15.257 14.6957 15.238 14.6553 15.1992C14.6118 15.1573 14.5065 15.1414 14.4503 15.166C14.3893 15.1929 14.3331 15.2602 14.3323 15.3734ZM16.6115 16.1785L16.6155 16.853L16.7153 16.8855L16.7018 16.2505L16.6115 16.1785ZM1.7773 10.7128C1.67834 10.6075 1.64034 10.4943 1.53188 10.4104C1.49546 10.3827 1.44401 10.4207 1.40996 10.3827C1.34742 10.3115 1.28726 10.2355 1.21996 10.2331C1.17959 10.2315 1.13367 10.2861 1.09251 10.298C1.01334 10.3202 0.916755 10.351 0.873214 10.4168C0.817797 10.5007 0.825714 10.6107 0.799589 10.7081C0.748922 10.8965 0.79563 11.0572 0.970589 11.1348C1.20334 11.2377 1.38463 11.4356 1.66963 11.225C1.75988 11.1585 1.85646 11.2377 1.86201 10.9852C1.86438 10.834 1.83667 10.7833 1.7773 10.7128ZM36.3312 19.2328C36.3351 19.2605 36.3652 19.2866 36.3874 19.2921C36.5228 19.327 36.6067 19.3475 36.666 19.5217C36.6787 19.5589 36.7547 19.5732 36.8363 19.6199C36.8845 19.6476 36.9035 19.7236 36.9518 19.7426C36.9764 19.7521 37.0255 19.7521 37.0468 19.7537C37.198 19.7679 37.4118 19.8471 37.5416 19.9049C37.5535 19.9104 37.6469 19.8598 37.7237 19.8582C37.7665 19.8574 37.795 19.9033 37.8235 19.9065C37.8852 19.9128 37.9303 19.817 37.9858 19.764C37.9968 19.7529 37.9509 19.6349 37.9161 19.6254C37.753 19.5803 37.6944 19.5518 37.6065 19.5312C37.5155 19.5114 37.2543 19.5534 37.1988 19.494C36.9685 19.2486 36.6708 19.1829 36.3486 19.194C36.3359 19.194 36.3296 19.2185 36.3312 19.2328ZM1.46221 9.29813C1.43371 9.16434 1.25559 9.08042 1.13921 9.14534C1.04263 9.19996 1.00146 9.24588 0.881922 9.30842C0.779797 9.36146 0.62463 9.43984 0.671339 9.61163C0.720422 9.79213 0.83838 9.90296 0.99038 9.90455C1.31417 9.90613 1.53267 9.62588 1.46221 9.29813ZM4.32567 12.635C4.25363 12.5083 4.09371 12.4917 4.02246 12.4917C3.95913 12.4917 3.97417 12.5543 3.87205 12.5519C3.6575 12.5463 3.63138 12.6144 3.62821 12.6437C3.59496 12.9675 3.65909 13.0221 3.8768 13.0269C4.0565 13.0308 4.25046 13.0031 4.3803 12.8598C4.45392 12.7783 4.4848 12.7791 4.53388 12.7348C4.47688 12.7015 4.3708 12.7142 4.32567 12.635ZM31.4125 19.4038C31.5353 19.5019 31.6714 19.5835 31.8092 19.6587C31.8844 19.6998 31.9833 19.6246 31.981 19.5439C31.9802 19.5138 31.9453 19.4742 31.9438 19.4505C31.9319 19.2866 31.9414 19.2779 31.7348 19.2011C31.6603 19.1718 31.5946 19.1211 31.5234 19.0823C31.3943 19.0127 31.3555 19.0847 31.3128 19.1235C31.3935 19.1401 31.2724 19.327 31.4125 19.4038ZM0.49163 9.5673C0.440964 9.40263 0.315089 9.35434 0.171797 9.33376C0.0530471 9.31713 -0.0221613 9.45488 0.0071304 9.53246C0.0530471 9.65834 0.24938 9.804 0.343589 9.78105C0.514589 9.78342 0.543089 9.73592 0.49163 9.5673ZM34.8223 18.4253C34.7589 18.4316 34.7146 18.4728 34.774 18.5424C34.8713 18.6564 35.2157 18.7388 35.4215 18.6913C35.4675 18.681 35.4817 18.6382 35.5126 18.6168C35.2941 18.4838 35.0724 18.3999 34.8223 18.4253ZM12.0658 14.8699C12.0436 14.9411 12.1838 14.9823 12.365 15.0702C12.5376 15.1541 12.7482 15.2839 12.8551 15.3528C12.6453 15.147 12.1188 14.6973 12.0658 14.8699ZM38 19.498C37.8607 19.441 37.5203 19.2993 37.5203 19.2993L37.4237 19.3768L37.2075 19.3309L37.2273 19.3895C37.2281 19.3895 37.734 19.513 38 19.498ZM31.1204 19.4038C30.951 19.285 30.7816 19.2256 30.5575 19.2367C30.6905 19.3855 31.0895 19.528 31.1204 19.4038ZM5.32475 9.59342C5.32159 9.48813 5.32159 9.42638 5.24875 9.41846C5.17751 9.41846 5.13555 9.48892 5.11971 9.53642C5.08092 9.65438 5.19967 9.73909 5.35959 9.71138C5.34217 9.67892 5.32634 9.64725 5.32475 9.59342ZM35.7248 18.7625C35.929 18.9105 36.0406 18.9794 36.2354 18.8599C36.077 18.8211 35.9338 18.7443 35.7065 18.7348C35.7065 18.7356 35.7137 18.7546 35.7248 18.7625ZM30.4032 19.1813C30.415 19.1132 30.2211 19.1116 30.2211 19.1116C30.3319 19.2779 30.3913 19.2494 30.4032 19.1813ZM9.01234 10.492V9.34088L8.91892 10.4492L9.01234 10.492Z" fill="#56F5F5"/>
</svg>
