<svg width="20" height="21" viewBox="0 0 20 21" fill="none" xmlns="http://www.w3.org/2000/svg">
<path d="M14.6833 10.5013C14.6833 7.91988 12.5832 5.81979 10.0018 5.81979C7.42044 5.81979 5.32031 7.91992 5.32031 10.5013C5.32031 13.0827 7.42044 15.1828 10.0018 15.1828C12.5832 15.1828 14.6833 13.0827 14.6833 10.5013ZM13.07 10.5013C13.07 12.1931 11.6936 13.5694 10.0018 13.5694C8.31 13.5694 6.93366 12.1931 6.93366 10.5013C6.93366 8.80949 8.31004 7.43315 10.0018 7.43315C11.6936 7.43311 13.07 8.80949 13.07 10.5013Z" fill="#7FA5D1"/>
<path d="M10.269 11.6229C10.8914 11.4758 11.2767 10.852 11.1296 10.2296C10.9824 9.60728 10.3587 9.22203 9.73628 9.36915C9.11391 9.51627 8.72863 10.14 8.87575 10.7624C9.02286 11.3848 9.64665 11.77 10.269 11.6229Z" fill="#7FA5D1"/>
<path d="M18.8115 9.33121H18.5978C18.3468 7.45769 17.4947 5.72654 16.1354 4.3672C14.7805 3.0123 13.0562 2.16141 11.1898 1.90724V1.68846C11.1897 1.03311 10.6566 0.5 10.0013 0.5C9.34599 0.5 8.81284 1.03311 8.81284 1.68846V1.90724C6.94638 2.16141 5.22207 3.0123 3.8672 4.3672C2.5123 5.72211 1.66141 7.44638 1.40724 9.31284H1.18846C0.533111 9.31284 0 9.84595 0 10.5013C0 11.1566 0.533111 11.6897 1.18846 11.6897H1.40724C1.66141 13.5562 2.5123 15.2805 3.8672 16.6353C5.22654 17.9947 6.95769 18.8467 8.83121 19.0978V19.3115C8.83121 19.9668 9.36433 20.5 10.0196 20.5C10.6749 20.5 11.2081 19.9669 11.2081 19.3115V19.0928C13.0675 18.8356 14.785 17.9858 16.1354 16.6353C17.4859 15.2849 18.3356 13.5675 18.5929 11.708H18.8115C19.4668 11.708 20 11.1749 20 10.5196C20 9.86433 19.4668 9.33121 18.8115 9.33121ZM10.0196 15.956C9.36433 15.956 8.83121 16.4892 8.83121 17.1445V17.4627C5.88071 16.9684 3.54487 14.6377 3.04294 11.6898H3.61555C4.27085 11.6898 4.804 11.1566 4.804 10.5013C4.804 9.84599 4.27089 9.31284 3.61555 9.31284H3.04294C3.54385 6.37097 5.87101 4.04381 8.81284 3.5429V3.85549C8.81284 4.5108 9.34595 5.04395 10.0013 5.04395C10.6566 5.04395 11.1898 4.51084 11.1898 3.85549V3.5429C14.1377 4.04483 16.4684 6.38067 16.9627 9.33118H16.3844C15.7291 9.33118 15.196 9.86429 15.196 10.5196C15.196 11.1749 15.7291 11.708 16.3844 11.708H16.9566C16.4502 14.6351 14.1351 16.9501 11.2081 17.4565V17.1444C11.2081 16.4892 10.6749 15.956 10.0196 15.956Z" fill="#7FA5D1"/>
</svg>