<svg width="38" height="28" viewBox="0 0 38 28" fill="none" xmlns="http://www.w3.org/2000/svg">
<path d="M17.7832 16.4239L17.6414 16.1453C17.5377 16.1453 17.4839 16.1429 17.4364 16.1453C17.3802 16.1476 17.3153 16.059 17.3153 16.059C17.3153 16.059 17.2242 16.1405 17.054 16.127L17.0057 16.9908C17.0057 16.9908 17.206 17.0232 17.2124 17.0691C17.2179 17.1063 17.172 17.1649 17.1213 17.1649C17.0707 17.1649 17.0366 17.1055 17.0366 17.1055L16.9931 17.0992L16.754 20.5754L16.7271 17.005L16.5466 16.9385L16.4714 17.2948L16.4642 20.4773L16.2244 21.261L16.2188 22.2846L16.3043 22.6314L16.3075 23.2125L16.1967 23.6225L16.1856 25.1418L15.9964 27.4582L15.8824 25.897L15.7652 25.5748L15.7707 22.937L15.7145 22.439C15.7145 22.439 15.6441 24.0651 15.6203 24.6723L15.4406 22.0313L15.4612 20.2991L15.3076 19.6705L15.3052 18.2796L15.0662 17.5758V16.3036C15.0662 16.3036 14.8097 16.2347 14.7115 16.1516C14.6197 16.0748 14.5001 15.9608 14.5001 15.9608L14.1803 15.9687L13.1535 15.4153L13.0134 15.3987L12.8392 15.1351L13.0339 15.3346C13.0339 15.3346 13.7472 15.489 14.0069 15.5301C14.1098 15.5468 14.2563 15.5642 14.1898 15.3615C14.185 15.3465 14.1977 15.3219 14.2072 15.3045C14.2784 15.1723 14.2998 15.0638 14.0995 15.0535C14.0821 15.0528 14.0267 15.0187 14.0227 15.0053C14.0061 14.9419 13.9927 14.8366 13.9238 14.8422C13.7924 14.8525 13.6451 14.7788 13.5612 14.7535C13.4852 14.7313 13.4124 14.7543 13.4124 14.7543C13.4124 14.7543 13.3284 14.6633 13.2881 14.6522C13.2208 14.6348 13.1852 14.6482 13.1337 14.6435C12.9231 14.6245 12.8922 14.7353 12.8297 14.9C12.6215 14.6173 12.5304 14.7187 12.3808 14.6435C12.3024 14.6047 12.1568 14.5532 12.1568 14.5532C12.1568 14.5532 12.0452 14.6031 11.9889 14.6498C11.962 14.672 11.8813 14.6743 11.8662 14.6545C11.7894 14.5508 11.6786 14.4923 11.5306 14.5105C11.4094 14.5255 11.2915 14.4582 11.2915 14.4582L11.282 14.7741L11.1142 15.2839L11.069 16.3851L10.9772 16.8364L10.9503 14.4677L10.8862 14.4645L10.8917 17.6605L10.9194 17.7128L10.9249 18.0983L10.7809 18.4379L10.765 18.7934L10.822 18.9082L10.6035 23.2853L10.5655 20.2991L10.5077 20.1756L10.4436 22.0368L10.2607 22.6171L10.2774 24.0888L10.0977 24.4665V25.0198L10.1222 25.1109L9.96703 26.976L9.84828 24.9351L9.71765 24.2693L9.70578 22.9765L9.61394 22.663L9.61553 21.2357L9.4754 20.2588L9.47461 18.1165L9.38515 17.7848L9.39307 16.4975L9.31865 16.1856L9.07878 20.4424L9.03603 15.1485L8.94103 15.0567C8.94103 15.0567 8.93944 14.4258 8.93944 14.14C8.58953 14.2009 8.29503 14.0727 7.99499 13.9436C7.85644 13.8835 7.50336 13.9175 7.39965 13.8645C7.29357 13.8098 7.17561 13.7204 7.17561 13.7204C7.17561 13.7204 6.95394 13.7433 6.82649 13.7022C6.57474 13.6681 6.52249 13.5771 6.41165 13.4678C6.05224 13.114 5.64849 12.8741 5.1434 12.8369C4.97953 12.825 4.85444 12.7427 4.73569 12.6247C4.53382 12.4252 4.28444 12.3429 3.99944 12.3793C3.93215 12.388 3.85615 12.3809 3.79282 12.3571C3.56561 12.2724 3.34157 12.1774 3.11674 12.0848C3.03361 12.05 2.87132 11.9629 2.87132 11.9629C2.87132 11.9629 2.80007 12.0017 2.76444 12.0246C2.74703 12.0357 2.70032 12.0215 2.68132 12.0033C2.52536 11.8536 2.3789 11.7008 2.36386 11.4578C2.35832 11.3707 2.3789 11.3224 2.34328 11.2868C2.22611 11.168 2.07965 11.0271 2.08124 10.8609C2.08282 10.674 2.07094 10.4175 2.07728 10.2307C2.08678 9.918 2.23007 9.6995 2.48894 9.51742C2.62036 9.4248 2.75019 9.3678 2.89824 9.35434C3.07478 9.3385 3.27032 9.3765 3.43499 9.38521C3.87832 9.40817 3.77065 9.4525 3.88624 9.46834C3.97015 9.48021 4.09524 9.48021 4.17994 9.47388C4.7919 9.44934 4.84574 9.50871 5.17428 9.74067C5.47274 9.95205 5.82028 9.81905 5.99049 9.94017C6.0459 9.97975 6.18999 10.1563 6.36574 10.2173C6.63174 10.3091 6.71011 10.2885 6.87319 10.332C7.36165 10.4627 7.47644 10.4658 7.74957 10.4516L7.77569 10.4943L7.88732 10.5102L7.97282 10.4405L8.81436 10.4571L8.76369 9.68367L8.59428 9.14771L8.82624 8.19851V7.08225L8.85869 7.05534L8.86028 6.93105L8.82624 6.88909C8.82624 6.821 8.82703 6.77746 8.82703 6.77746L8.86186 6.77113L8.86344 6.5835L8.81832 6.53917L8.82386 6.1378L9.04711 5.64617L9.07165 5.18859L9.36853 4.9503C9.36853 4.9503 9.52449 4.92021 9.58069 4.89884C9.80553 4.81255 9.92586 4.74288 9.92586 4.74288C10.37 4.70488 10.5988 4.59642 10.5988 4.59642L10.6843 4.30588C10.7191 4.42146 10.8038 4.7413 10.8038 4.7413L10.9677 4.67875C10.9677 4.67875 11.0635 4.85767 11.1624 4.87034L11.2329 4.57188L11.3398 4.60671L11.4284 3.64405L11.567 5.36671L11.6256 5.5013C11.6256 5.5013 11.6659 5.20996 11.6778 5.15217C11.6881 5.31288 11.7609 5.79975 11.7609 5.79975C11.7609 5.79975 11.9739 6.20192 12.0364 6.40459C12.0364 6.40459 11.9676 6.62705 11.9114 6.9643C11.8362 7.06009 11.7063 7.15192 11.7182 7.429C11.7293 7.68471 11.7665 7.89688 11.7665 7.89688L11.6596 8.02434L11.6723 9.94571L11.3683 11.1023L12.1544 11.1696L12.4362 11.3018L12.8028 11.2915L13.5097 11.4673L13.6396 11.438L13.9206 11.6058L14.0948 11.59C14.0948 11.59 14.1193 11.6233 14.147 11.6328L14.1106 11.7903L14.1597 11.8568L14.2974 11.8726L14.5698 12.1022L14.7368 12.0151L14.6307 9.76125L14.7265 9.58075L14.7249 8.91496L14.4249 8.04334L14.417 6.44971L14.3354 6.35471L14.3117 7.15825L14.1961 5.80055L14.0599 5.58205L14.0592 5.27725L14.0235 5.25825C14.0243 5.1973 14.0576 5.01917 14.0576 5.01917L14.0029 4.94871L14.0932 4.05017C14.0932 4.05017 14.2444 3.99317 14.3766 3.66225C14.489 3.37963 14.5999 3.28305 14.7701 3.13738C14.8785 3.04396 14.9719 2.93075 15.0844 2.84288C15.211 2.74392 15.2427 2.6323 15.4857 2.5753C15.6876 2.52859 15.8364 2.3085 15.8364 2.3085L15.9085 2.39242L16.0763 1.89209L16.1935 1.85171L16.3621 0.541504L16.4547 2.17234L16.5331 2.185L16.6091 1.6158L16.712 2.65209L16.7754 2.67505L16.7967 2.36075L16.8799 2.2523L16.94 1.59125L17.0105 2.50246L17.0501 2.62992L17.0904 2.48584L17.1372 2.95767L17.2947 3.05346L17.2963 3.24109L17.4538 3.4873C17.4538 3.4873 17.4768 3.78259 17.4736 3.86017C17.4704 3.93696 17.4657 4.09055 17.4657 4.09055L17.5211 4.34071L17.4301 4.49984L17.4261 4.59721L17.4625 4.62809L17.4697 5.52346L17.3754 5.97946L17.4134 6.22725L17.2504 9.21421L17.2195 7.01021L17.1079 7.51688L17.0999 9.70188L17.2456 10.1895L17.2559 12.6255C17.2559 12.6255 17.3501 12.578 17.4744 12.5828C17.6533 12.5891 17.8045 12.7348 18.0666 12.7799C18.1521 12.8408 18.2756 12.9849 18.3706 13.03C18.3975 13.0427 18.5764 13.0791 18.5764 13.0791L18.7601 13.2509C18.935 13.2351 19.0546 13.2699 19.1773 13.3309C19.4092 13.3918 19.6064 13.4963 19.7362 13.7022C19.8241 13.8423 19.9444 13.9246 20.0291 13.9737C20.1138 14.0236 20.4954 14.0149 20.4954 14.0149L20.4907 11.6993L20.2927 10.9416L20.2753 9.24113L20.4907 8.80967L20.4717 7.3728L20.4091 7.16063L20.4131 6.64921L20.3592 6.7173C20.3592 6.7173 20.3204 8.31488 20.3022 8.873C20.2943 8.873 20.1479 5.94542 20.1479 5.94542L20.0157 5.67388C20.0157 5.67388 20.1384 5.33505 20.1384 5.27805C20.1384 5.1403 20.0861 5.07617 20.0861 5.07617L20.0687 4.56871C20.0687 4.56871 20.17 4.351 20.2136 4.0763C20.2437 3.88709 20.2452 3.66146 20.2452 3.66146L20.6181 3.20625L20.6276 2.86663L20.782 2.68613L20.8596 1.20492L20.9395 2.32038L21.101 2.91809L21.1786 2.83417V2.44625L21.2649 2.59984L21.2958 1.95621L21.333 2.52384L21.462 2.76371L21.637 2.7178L22.0154 2.94184L22.1555 2.93709L22.2315 2.66396L22.3131 3.0875L22.4382 3.1738L22.4809 3.3155C22.4809 3.3155 22.6559 3.42159 22.6891 3.45721C22.7754 3.58625 22.9385 4.04146 22.9385 4.04146L22.9804 4.56871C22.7105 5.1498 22.6804 5.434 22.682 5.7863C22.6836 6.20113 22.6092 7.11392 22.6092 7.11392L22.773 7.87075L22.6559 12.6374L22.5601 13.0831C22.5601 13.0831 22.5577 10.8078 22.5577 9.78501L22.5237 9.72246L22.3938 10.3281L22.3907 13.4694L22.3234 14.0473L22.3147 14.6332C22.3147 14.6332 22.397 14.6981 22.5157 14.7234C22.7857 14.9364 23.1111 14.9839 23.4736 14.9253C23.4982 14.9213 23.5243 14.9237 23.5497 14.9221C23.6866 14.9134 23.7856 14.9673 23.8347 15.1034C23.879 15.2285 23.9653 15.2633 24.0935 15.2697C24.2408 15.2776 24.3049 15.2618 24.4506 15.2942C24.5487 15.3164 24.5638 15.4264 24.825 15.4264C24.9944 15.4343 25.1322 15.5048 25.2699 15.595C25.3744 15.6639 25.6278 15.7835 25.6278 15.7835L25.5826 14.0909L25.6135 12.5297L25.5312 12.164L25.4845 12.1085L25.3895 13.209L25.1702 11.7206L25.1591 9.95759L25.2889 9.49763V8.79621L25.1837 8.26975L25.1987 8.06234L25.1346 8.02513L25.1306 7.89055L25.1005 7.84067L25.2882 6.86375L25.547 6.63338L25.7584 6.0903L25.8099 6.29534L25.8621 6.32938L25.9413 5.00809L26.1036 6.01746L26.2223 6.12117L26.3157 6.07684L26.4432 4.30667L26.5453 5.94938L26.6158 5.28359L26.6704 6.0808L26.7329 5.99846L26.7852 6.09821L26.8533 6.10217L26.9008 6.18609L27.0148 6.18055C27.1122 6.2803 27.2539 6.31275 27.3148 6.3555C27.4122 6.42438 27.5444 6.44417 27.5444 6.44417C27.5444 6.44417 27.7368 6.74184 27.8239 6.94688C27.8927 7.10917 27.9933 7.45117 27.9933 7.45117L27.9679 8.02038L28.0321 8.22621L27.8682 8.6735L28.059 8.95534L27.8254 14.254L27.7336 10.7785L27.6814 10.9844L27.6877 11.9407L27.4787 12.426C27.4787 12.426 27.4684 14.0513 27.4771 14.7899C27.4803 15.0448 27.4676 15.1897 27.4676 15.1897L27.2341 15.7732L27.2301 16.165L27.4106 16.2648C27.7004 16.2149 28.0131 16.2292 28.2672 16.3978C28.3614 16.4603 28.4809 16.4857 28.5926 16.515C28.7477 16.5561 28.7121 16.5173 28.8712 16.5387C28.9259 16.5458 29.119 16.6646 29.1737 16.6345C29.2307 16.6036 29.2829 16.4485 29.366 16.4334C29.4492 16.4184 29.537 16.5609 29.5378 16.6226C29.5386 16.6804 29.5434 16.7857 29.5434 16.7857C29.5434 16.7857 29.7484 16.9021 29.845 16.8997C30.2662 16.8997 30.4878 17.0573 30.8441 17.1253C31.1021 17.1744 31.2169 17.1895 31.4703 17.2599C31.5597 17.2845 31.7228 17.3011 31.8091 17.3779C31.8447 17.4095 31.8321 17.4919 32.0165 17.5449C32.1171 17.5742 32.4124 17.571 32.6016 17.6843C32.9626 17.9004 33.208 17.9661 33.4645 17.9471C33.5555 17.9408 33.6671 17.9534 33.7408 18.0033C33.9775 18.1624 34.2364 18.2313 34.5111 18.2614C34.5728 18.2685 34.6615 18.316 34.7217 18.3334C34.7217 18.3429 34.6156 18.396 34.4992 18.3944C34.4145 18.3936 34.3219 18.3398 34.2688 18.3413C33.9775 18.3493 34.021 18.3223 33.8294 18.2812C33.7265 18.259 33.7139 18.293 33.6482 18.3746C33.5832 18.4553 33.4787 18.5187 33.3932 18.5028C33.2966 18.4846 33.2151 18.3785 33.0481 18.3548C32.6578 18.2978 32.7409 18.202 32.4219 18.0793C32.3379 18.0476 32.0981 18.0239 32.007 18.0183C31.6468 18.0183 31.7925 17.8608 31.5851 17.845C31.3777 17.8291 31.3721 17.6945 31.2858 17.666C31.2146 17.6423 31.1972 17.6874 30.9882 17.6779C30.943 17.6755 30.8749 17.685 30.8417 17.6573C30.5361 17.4064 30.1577 17.4658 29.8109 17.3937C29.4618 17.3755 29.3811 17.2789 29.1966 17.271C29.0676 17.2655 28.8301 17.3834 28.8301 17.3834C28.8301 17.3834 28.819 17.4935 28.834 17.5378C28.8902 17.7143 29.0478 17.7919 29.2837 17.7563C29.4294 17.7341 29.5671 17.7025 29.6518 17.8727C29.6589 17.8869 29.6859 17.8956 29.7049 17.898C29.7737 17.9107 29.8553 17.8964 29.9194 17.9083C29.9978 17.9233 30.0571 17.9653 30.1284 17.9795C31.627 18.2835 31.6262 18.445 31.954 18.445C32.1432 18.445 32.2065 18.4648 32.4923 18.4648C32.5335 18.4648 32.6063 18.6406 33.1185 18.7609C33.2412 18.8013 33.2879 18.8322 33.7321 18.8322C33.8294 18.8322 34.1809 19.0578 34.3567 19.0657C34.3979 19.0673 34.4944 19.0602 34.496 18.9968C34.4976 18.9446 34.4446 18.8939 34.4042 18.8749C34.3084 18.829 34.2031 18.8068 34.1041 18.768C34.0535 18.7483 34.0036 18.7205 33.9601 18.6865C33.9419 18.6723 33.9268 18.6501 33.9355 18.605C33.945 18.5598 34.0282 18.5907 34.0282 18.5907C34.0282 18.5907 34.1968 18.7388 34.6338 18.8053C34.7533 18.8567 35.0502 19.0713 35.1745 19.1108C35.5046 19.1085 35.6091 19.1591 35.6891 19.228C35.731 19.2636 35.7722 19.2763 35.8577 19.2921C35.9669 19.3127 36.1981 19.2628 36.1847 19.3175C36.1736 19.4125 36.1189 19.4671 36.0065 19.4402C35.9282 19.422 35.8466 19.4038 35.7746 19.3689C35.6004 19.2834 35.431 19.1995 35.2252 19.2256C35.1579 19.2343 35.0795 19.1884 35.0122 19.1568C34.8602 19.0847 34.7145 19.0713 34.5633 19.1631C34.401 19.262 34.2316 19.232 34.0654 19.1686C33.9426 19.1219 33.7012 19.0055 33.7012 19.0055C33.7012 19.0055 33.4344 18.9945 33.3315 19.0293C33.3339 18.9517 33.3236 18.8448 33.2064 18.8733C33.0892 18.9018 33.1446 18.9683 33.1914 19.0079C33.1027 19.0158 32.9998 19.0697 32.9103 19.061C32.8209 19.053 32.7449 18.9834 32.6562 18.8702C32.6198 18.8235 32.5628 18.7625 32.5097 18.7546C32.4773 18.7498 32.4575 18.7902 32.4139 18.7918C32.3752 18.7934 32.2825 18.6818 32.2113 18.6723C32.0719 18.6533 31.9667 18.586 31.8891 18.5575C31.7426 18.5052 31.6397 18.5179 31.6397 18.5179C31.6397 18.5179 31.5162 18.4395 31.4544 18.4173C31.2771 18.3532 31.251 18.3817 31.2415 18.5662C31.2557 18.7316 31.1789 18.7894 31.1346 18.8828C31.1275 18.8971 31.061 18.9098 30.9969 18.8433C30.9984 18.8274 31.0008 18.8116 31.0024 18.7958C31.0507 18.7625 31.118 18.7403 31.1425 18.6936C31.1687 18.6445 31.1758 18.6018 31.1599 18.5456C31.152 18.5163 31.1362 18.4466 31.0942 18.4324C31.0697 18.4237 30.9874 18.4823 30.962 18.4751C30.9256 18.4656 30.9066 18.3595 30.8496 18.4063C30.7926 18.4538 30.8306 18.5044 30.8393 18.5495C30.8686 18.6936 30.7989 18.8053 30.6644 18.8116C30.5844 18.8148 30.5353 18.7847 30.5567 18.6913C30.5654 18.6509 30.5741 18.6105 30.582 18.5693C30.6074 18.4355 30.5551 18.3635 30.5551 18.3635C30.5551 18.3635 30.1165 18.2107 29.9938 18.1885C29.9218 18.1759 29.8347 18.2115 29.8204 18.2543C29.7737 18.3983 29.8022 18.43 29.8743 18.5258C29.8901 18.5464 29.9107 18.5765 29.936 18.5923C30.0033 18.635 30.0674 18.6707 30.0073 18.7712C29.9503 18.8662 29.8862 18.9185 29.7706 18.886C29.6479 18.8409 29.6043 18.8005 29.408 18.7973C29.3462 18.7791 29.2797 18.7554 29.2338 18.7134C29.0723 18.5654 28.8689 18.5234 28.6567 18.5234C28.6044 18.5234 28.5514 18.4823 28.5205 18.4411C28.4208 18.3049 28.3432 18.2725 28.192 18.2685C28.0756 18.2645 27.8999 18.2717 27.7843 18.259C27.6861 18.2653 27.5484 18.2376 27.5484 18.2376L27.5309 18.122L27.2974 18.1102L27.3845 18.8931L27.0947 23.5758L27.014 20.1843L26.9689 20.1764L26.8944 20.4741V22.5166L26.6894 23.1301L26.4519 26.1321L26.2611 23.1404L26.2453 21.5159L26.0988 20.9404L26.1044 20.0632L26.1922 19.7157V18.1727L26.0482 17.7587C26.0482 17.7587 26.0204 17.7571 25.9096 17.7864C25.8637 17.7983 25.7576 17.7658 25.7576 17.7658L25.7109 19.4449L25.6642 17.7777C25.5478 17.8434 25.494 17.8798 25.4219 17.936C25.1813 18.126 24.9382 18.2186 24.7601 18.1941C24.6501 18.179 24.5836 18.2416 24.5202 18.2479C24.487 18.2511 24.4434 18.2337 24.4339 18.2107C24.3872 18.0943 24.2891 18.0801 24.1893 18.0563C24.0072 18.0136 23.8267 17.9613 23.6447 17.9162C23.3604 17.8465 23.0762 17.822 22.796 17.9408C22.7699 17.9518 22.7327 17.9653 22.7073 17.9495C22.5807 17.8663 22.4587 17.9154 22.3416 17.9471C22.1239 18.0057 22.1104 17.8442 22.1104 17.8442L22.0558 17.7943L21.8777 18.4878L21.884 21.6537L21.6307 22.2561V23.0842L21.3734 25.2265L21.2055 22.3883L21.2277 20.7615L21.063 20.3118C21.063 20.3118 20.9562 22.0796 20.911 22.7929L20.7733 20.3419L20.6102 19.756L20.7139 19.2264L20.7202 17.4943L20.6387 17.4594C20.6387 17.4594 20.5294 17.1523 20.455 17.1523C20.3806 17.1523 19.7718 17.115 19.7718 17.115C19.7718 17.115 19.3285 17.2528 19.1227 17.3375C18.9952 17.3898 18.9295 17.3613 18.7965 17.3613C18.7791 17.3613 18.7339 17.4048 18.6825 17.442C18.5938 17.5053 18.5147 17.514 18.4394 17.4293C18.3334 17.3082 18.236 17.3122 18.236 17.3122C18.236 17.3122 18.0587 17.3842 18.0412 17.3803C17.9747 17.3652 17.909 17.3478 17.8465 17.3201C17.8386 17.3169 17.8481 17.2251 17.8481 17.2251L18.0024 17.142L18.1054 17.1792L18.1671 17.2283L18.2621 17.2108L18.3468 17.2663C18.3468 17.2663 18.4022 17.2552 18.4189 17.2583C18.4299 17.2607 18.4482 17.0858 18.4482 17.0858L18.4695 17.275C18.5709 17.2979 18.5922 17.1602 18.5922 17.0984C18.5922 17.0177 18.5432 16.9282 18.5432 16.9282L18.5036 16.9148L18.4418 16.9828L18.3864 16.8752L18.2233 16.7683L17.966 16.7572L17.7832 16.4239ZM17.8758 16.8031C17.8758 16.8031 18.0705 16.9148 18.0286 16.9472C18.0119 16.9599 17.9288 16.8696 17.8433 16.8712C17.7784 16.872 17.6929 16.9615 17.6929 16.9615L17.567 16.9591L17.4047 17.1127L17.3113 17.1095L17.2488 17.172L17.2654 17.0818C17.2654 17.0818 17.4388 16.9219 17.4578 16.8926C17.4982 16.83 17.5243 16.625 17.5243 16.625C17.5243 16.625 17.5868 16.6448 17.6707 16.6448L17.7459 16.4944L17.8599 16.6622L17.8758 16.8031ZM23.3676 16.4223L23.347 16.6424C23.347 16.6424 23.4626 16.6622 23.5536 16.6725C23.5987 16.6773 23.6407 16.7548 23.6359 16.9409C23.7246 16.9892 23.8228 16.9781 23.8837 16.9623C23.9621 16.9425 24.0365 16.9005 24.1149 16.8894C24.2329 16.8728 24.3738 16.8308 24.468 16.8768C24.8551 17.0668 25.2462 17.005 25.6397 16.9599C25.6452 16.9013 25.6444 16.819 25.6428 16.7841C25.6389 16.6812 25.5993 16.7137 25.4544 16.7453C25.3388 16.7707 25.2715 16.7279 25.2098 16.6408C25.1504 16.5577 25.0855 16.4778 25.0214 16.3986C25.015 16.3907 24.9944 16.3946 24.9739 16.3923C24.9644 16.4374 24.9549 16.4793 24.9493 16.5078C24.8052 16.5292 24.8385 16.4033 24.7744 16.3796C24.6984 16.3519 24.6042 16.3796 24.5329 16.3455C24.3287 16.2474 24.1299 16.1397 23.9012 16.2695C23.8893 16.2759 23.8695 16.2751 23.856 16.2695C23.7626 16.2315 23.5655 16.1912 23.5655 16.1912C23.5655 16.1912 23.4768 16.2656 23.2607 16.2648C22.9614 16.2941 22.7089 16.2149 22.5585 15.9165C22.5268 15.8539 22.4714 15.8009 22.4184 15.7542C22.3875 15.7265 22.3384 15.7201 22.298 15.7043C22.2901 15.717 22.2814 15.7296 22.2735 15.7431C22.2972 15.7708 22.3162 15.8072 22.3455 15.8246C22.4817 15.9054 22.5585 15.9925 22.6511 16.1579C22.7327 16.268 22.8609 16.3044 22.9361 16.382C23.1776 16.3796 23.2449 16.4081 23.3676 16.4223ZM27.2499 17.2726C27.2499 17.2726 27.2143 17.4863 27.2816 17.5988C27.2816 17.5988 27.4296 17.5972 27.6236 17.6019C27.8191 17.6067 28.0107 17.6645 28.2047 17.6914C28.2545 17.6985 28.3274 17.7056 28.3535 17.6771C28.3875 17.6399 28.4034 17.5655 28.3954 17.5117C28.3741 17.3708 28.2814 17.3098 28.0954 17.3248C27.8144 17.3478 27.5341 17.4206 27.2499 17.2726ZM14.3323 15.3734C14.3307 15.5206 14.4281 15.6402 14.5199 15.6663C14.6687 15.709 14.6695 15.546 14.6822 15.4335C14.683 15.424 14.7147 15.3362 14.7139 15.3283C14.7036 15.257 14.6957 15.238 14.6553 15.1992C14.6117 15.1573 14.5064 15.1414 14.4502 15.166C14.3893 15.1929 14.3331 15.2602 14.3323 15.3734ZM16.6115 16.1785L16.6154 16.853L16.7152 16.8855L16.7017 16.2505L16.6115 16.1785ZM1.77724 10.7128C1.67828 10.6075 1.64028 10.4943 1.53182 10.4104C1.4954 10.3827 1.44394 10.4207 1.4099 10.3827C1.34736 10.3115 1.28719 10.2355 1.2199 10.2331C1.17953 10.2315 1.13361 10.2861 1.09244 10.298C1.01328 10.3202 0.916694 10.351 0.873153 10.4168C0.817736 10.5007 0.825653 10.6107 0.799528 10.7081C0.748861 10.8965 0.795569 11.0572 0.970528 11.1348C1.20328 11.2377 1.38457 11.4356 1.66957 11.225C1.75982 11.1585 1.8564 11.2377 1.86194 10.9852C1.86432 10.834 1.83661 10.7833 1.77724 10.7128ZM36.3311 19.2328C36.3351 19.2605 36.3652 19.2866 36.3873 19.2921C36.5227 19.327 36.6066 19.3475 36.666 19.5217C36.6786 19.5589 36.7547 19.5732 36.8362 19.6199C36.8845 19.6476 36.9035 19.7236 36.9518 19.7426C36.9763 19.7521 37.0254 19.7521 37.0468 19.7537C37.198 19.7679 37.4117 19.8471 37.5416 19.9049C37.5534 19.9104 37.6469 19.8598 37.7237 19.8582C37.7664 19.8574 37.7949 19.9033 37.8234 19.9065C37.8852 19.9128 37.9303 19.817 37.9857 19.764C37.9968 19.7529 37.9509 19.6349 37.916 19.6254C37.7529 19.5803 37.6944 19.5518 37.6065 19.5312C37.5154 19.5114 37.2542 19.5534 37.1988 19.494C36.9684 19.2486 36.6707 19.1829 36.3485 19.194C36.3359 19.194 36.3295 19.2185 36.3311 19.2328ZM1.46215 9.29813C1.43365 9.16434 1.25553 9.08042 1.13915 9.14534C1.04257 9.19996 1.0014 9.24588 0.881861 9.30842C0.779736 9.36146 0.624569 9.43984 0.671278 9.61163C0.720361 9.79213 0.838319 9.90296 0.990319 9.90455C1.31411 9.90613 1.53261 9.62588 1.46215 9.29813ZM4.32561 12.635C4.25357 12.5083 4.09365 12.4917 4.0224 12.4917C3.95907 12.4917 3.97411 12.5543 3.87199 12.5519C3.65744 12.5463 3.63132 12.6144 3.62815 12.6437C3.5949 12.9675 3.65903 13.0221 3.87674 13.0269C4.05644 13.0308 4.2504 13.0031 4.38024 12.8598C4.45386 12.7783 4.48474 12.7791 4.53382 12.7348C4.47682 12.7015 4.37074 12.7142 4.32561 12.635ZM31.4125 19.4038C31.5352 19.5019 31.6714 19.5835 31.8091 19.6587C31.8843 19.6998 31.9833 19.6246 31.9809 19.5439C31.9801 19.5138 31.9453 19.4742 31.9437 19.4505C31.9318 19.2866 31.9413 19.2779 31.7347 19.2011C31.6603 19.1718 31.5946 19.1211 31.5233 19.0823C31.3943 19.0127 31.3555 19.0847 31.3127 19.1235C31.3935 19.1401 31.2724 19.327 31.4125 19.4038ZM0.491569 9.5673C0.440903 9.40263 0.315028 9.35434 0.171736 9.33376C0.052986 9.31713 -0.0222223 9.45488 0.00706936 9.53246C0.052986 9.65834 0.249319 9.804 0.343528 9.78105C0.514528 9.78342 0.543028 9.73592 0.491569 9.5673ZM34.8222 18.4253C34.7589 18.4316 34.7145 18.4728 34.7739 18.5424C34.8713 18.6564 35.2157 18.7388 35.4215 18.6913C35.4674 18.681 35.4817 18.6382 35.5125 18.6168C35.294 18.4838 35.0724 18.3999 34.8222 18.4253ZM12.0657 14.8699C12.0436 14.9411 12.1837 14.9823 12.365 15.0702C12.5376 15.1541 12.7482 15.2839 12.855 15.3528C12.6452 15.147 12.1188 14.6973 12.0657 14.8699ZM37.9999 19.498C37.8606 19.441 37.5202 19.2993 37.5202 19.2993L37.4236 19.3768L37.2075 19.3309L37.2273 19.3895C37.2281 19.3895 37.7339 19.513 37.9999 19.498ZM31.1204 19.4038C30.9509 19.285 30.7815 19.2256 30.5575 19.2367C30.6905 19.3855 31.0895 19.528 31.1204 19.4038ZM5.32469 9.59342C5.32153 9.48813 5.32153 9.42638 5.24869 9.41846C5.17744 9.41846 5.13549 9.48892 5.11965 9.53642C5.08086 9.65438 5.19961 9.73909 5.35953 9.71138C5.34211 9.67892 5.32628 9.64725 5.32469 9.59342ZM35.7247 18.7625C35.9289 18.9105 36.0406 18.9794 36.2353 18.8599C36.077 18.8211 35.9337 18.7443 35.7065 18.7348C35.7065 18.7356 35.7136 18.7546 35.7247 18.7625ZM30.4031 19.1813C30.415 19.1132 30.221 19.1116 30.221 19.1116C30.3319 19.2779 30.3912 19.2494 30.4031 19.1813ZM9.01228 10.492V9.34088L8.91886 10.4492L9.01228 10.492Z" fill="#515B76"/>
</svg>
